<svg xmlns="http://www.w3.org/2000/svg" viewBox="0 0 200 48" fill="none">
  <!-- Leaf / pin mark -->
  <g transform="translate(4, 4)">
    <!-- Map pin shape -->
    <path d="M20 0C12.268 0 6 6.268 6 14c0 9.333 14 26 14 26s14-16.667 14-26C34 6.268 27.732 0 20 0z"
      fill="#16a34a"/>
    <path d="M20 0C12.268 0 6 6.268 6 14c0 9.333 14 26 14 26s14-16.667 14-26C34 6.268 27.732 0 20 0z"
      fill="url(#pinGrad)"/>
    <!-- Leaf inside pin -->
    <path d="M20 7c0 0-6 3.5-6 8 0 2.5 1.5 4.5 3.5 5.5-.5-1-.8-2.2-.8-3.5 0-2.8 1.5-5.2 3.3-7z"
      fill="#4ade80" opacity="0.9"/>
    <path d="M20 7c0 0 6 3.5 6 8 0 2.5-1.5 4.5-3.5 5.5.5-1 .8-2.2.8-3.5 0-2.8-1.5-5.2-3.3-7z"
      fill="#86efac" opacity="0.7"/>
    <circle cx="20" cy="15" r="2.5" fill="#fff" opacity="0.95"/>
  </g>

  <!-- Wordmark -->
  <text x="52" y="30"
    font-family="-apple-system,BlinkMacSystemFont,'Segoe UI',Roboto,sans-serif"
    font-size="20"
    font-weight="700"
    letter-spacing="-0.5"
    fill="#f0f6fc">weedspots</text>
  <text x="160" y="30"
    font-family="-apple-system,BlinkMacSystemFont,'Segoe UI',Roboto,sans-serif"
    font-size="20"
    font-weight="700"
    letter-spacing="-0.5"
    fill="#4ade80">.io</text>

  <defs>
    <linearGradient id="pinGrad" x1="6" y1="0" x2="34" y2="40" gradientUnits="userSpaceOnUse">
      <stop offset="0%" stop-color="#22c55e"/>
      <stop offset="100%" stop-color="#15803d"/>
    </linearGradient>
  </defs>
</svg>
